<?xml version="1.0" encoding="UTF-8"?> <svg xmlns="http://www.w3.org/2000/svg" width="242" height="233" viewBox="0 0 242 233" fill="none"> <path d="M110.448 227.761C110.06 227.349 109.873 226.864 109.89 226.304C109.906 225.737 110.119 225.267 110.53 224.891C110.955 224.51 111.444 224.327 111.997 224.343C112.556 224.36 113.028 224.57 113.409 224.974C113.798 225.372 113.985 225.854 113.968 226.421C113.953 226.981 113.739 227.454 113.327 227.843C112.923 228.225 112.441 228.408 111.881 228.392C111.328 228.376 110.85 228.166 110.448 227.761Z" fill="#F8F8F8"></path> <path d="M90.6192 217.263C91.4699 217.512 92.1895 217.949 92.778 218.573C93.3584 219.201 93.7502 219.952 93.953 220.824L94.0104 220.841L95.9166 214.333L97.2506 214.724L93.0764 228.977L92.251 228.735L92.4906 226.315L92.4524 226.304C91.8167 226.979 91.0684 227.434 90.2082 227.668C89.3541 227.904 88.4788 227.891 87.5831 227.629C86.2456 227.237 85.2645 226.425 84.6384 225.193C84.013 223.961 83.9222 222.586 84.3667 221.07C84.8125 219.547 85.6284 218.435 86.8129 217.733C88.0002 217.024 89.2688 216.868 90.6192 217.263ZM88.3068 226.475C89.3705 226.78 90.3652 226.669 91.291 226.141C92.2195 225.627 92.8518 224.799 93.187 223.653C93.5222 222.508 93.4375 221.469 92.933 220.535C92.438 219.592 91.6597 218.965 90.5974 218.653C89.535 218.342 88.5382 218.45 87.6063 218.975C86.6819 219.497 86.0531 220.327 85.7199 221.466C85.386 222.605 85.4666 223.647 85.9616 224.59C86.4627 225.536 87.2444 226.165 88.3068 226.475Z" fill="#F8F8F8"></path> <path d="M75.0907 212.739C74.0474 212.247 73.0124 212.183 71.9863 212.546C70.9533 212.907 70.1838 213.623 69.6772 214.697C69.1706 215.77 69.1065 216.819 69.4847 217.846C69.8568 218.87 70.5648 219.627 71.608 220.12C72.639 220.606 73.6644 220.667 74.6851 220.301C75.7181 219.94 76.4876 219.223 76.9941 218.15C77.4953 217.088 77.556 216.044 77.1778 215.018C76.8119 213.998 76.1161 213.238 75.0907 212.739ZM71.0215 221.314C69.6288 220.656 68.6743 219.649 68.1575 218.292C67.6399 216.935 67.7219 215.536 68.4019 214.095C69.0737 212.672 70.0978 211.728 71.4735 211.265C72.8588 210.798 74.2509 210.895 75.6498 211.555C77.0365 212.209 77.9903 213.219 78.5105 214.585C79.0273 215.943 78.9475 217.339 78.2702 218.774C77.5956 220.203 76.5702 221.149 75.1938 221.613C73.8174 222.076 72.4266 221.977 71.0215 221.314Z" fill="#F8F8F8"></path> <path d="M56.1036 211.286C56.9749 211.878 57.9117 212.071 58.9139 211.865C59.9218 211.664 60.748 211.089 61.3927 210.14L64.3725 205.757L65.5222 206.538L59.7312 215.057L59.0199 214.574L59.9855 212.388L59.9524 212.366C59.1625 212.805 58.3276 213.007 57.4477 212.973C56.577 212.937 55.7667 212.665 55.0168 212.155C53.8974 211.394 53.2391 210.359 53.042 209.047C52.8486 207.731 53.1773 206.447 54.0281 205.195L57.036 200.77L58.194 201.557L55.2142 205.941C54.5695 206.889 54.336 207.867 54.5137 208.874C54.6915 209.882 55.2214 210.686 56.1036 211.286Z" fill="#F8F8F8"></path> <path d="M47.6 194.081C46.7584 193.293 45.7933 192.913 44.7047 192.944C43.6112 192.97 42.6586 193.416 41.847 194.281C41.0354 195.148 40.6519 196.127 40.6967 197.22C40.7367 198.308 41.1774 199.247 42.019 200.036C42.8508 200.815 43.8086 201.187 44.8924 201.152C45.9859 201.127 46.9384 200.681 47.7501 199.815C48.5526 198.959 48.9314 197.984 48.8866 196.891C48.8515 195.807 48.4226 194.871 47.6 194.081ZM41.0948 200.992C39.971 199.939 39.3716 198.687 39.2964 197.237C39.2211 195.786 39.7284 194.48 40.8181 193.317C41.8942 192.169 43.1584 191.586 44.6106 191.568C46.0723 191.548 47.3673 192.068 48.4959 193.126C49.6148 194.174 50.212 195.428 50.2875 196.888C50.3627 198.339 49.8578 199.643 48.7726 200.8C47.6919 201.953 46.4255 202.539 44.9733 202.558C43.521 202.577 42.2282 202.054 41.0948 200.992Z" fill="#F8F8F8"></path> <path d="M24.4294 181.643C23.747 180.712 23.5152 179.675 23.7339 178.531C23.9604 177.397 24.614 176.433 25.6945 175.641L30.5163 172.103L31.3387 173.223L26.5491 176.738C25.775 177.306 25.3143 178.008 25.1668 178.843C25.0233 179.685 25.2119 180.46 25.7326 181.17C26.2453 181.869 26.9279 182.269 27.7803 182.372C28.6421 182.475 29.4357 182.261 30.1614 181.729L34.9833 178.19L35.8116 179.319L31.022 182.833C30.2157 183.425 29.7331 184.114 29.5741 184.901C29.4152 185.687 29.6178 186.465 30.1818 187.233C30.6787 187.911 31.3318 188.333 32.1408 188.5C32.9405 188.666 33.6952 188.488 34.4048 187.967L39.4443 184.27L40.2667 185.391L31.9615 191.485L31.4527 190.791L32.9072 189.24L32.8835 189.208C32.0856 189.372 31.3374 189.321 30.6387 189.056C29.9347 188.796 29.348 188.346 28.8786 187.706C28.3619 187.001 28.0889 186.263 28.0597 185.491C28.0265 184.713 28.2397 183.961 28.6994 183.235L28.6757 183.203C27.8589 183.397 27.0685 183.357 26.3046 183.082C25.5554 182.805 24.9303 182.325 24.4294 181.643Z" fill="#F8F8F8"></path> <path d="M26.0928 163.032C26.6251 164.13 26.7736 165.162 26.5382 166.128C26.2999 167.088 25.7488 167.778 24.885 168.197C23.9491 168.651 23.0113 168.642 22.0717 168.172C21.1322 167.701 20.3046 166.728 19.589 165.252C19.141 164.328 18.7995 163.349 18.5646 162.314L18.2946 162.445C16.6688 163.233 16.3474 164.656 17.3302 166.714C17.5688 167.206 17.8644 167.67 18.2169 168.107C18.5752 168.555 18.8665 168.881 19.0906 169.084C19.3059 169.283 19.4358 169.39 19.4803 169.406L18.5971 170.312C17.5601 169.518 16.7332 168.486 16.1165 167.214C15.4125 165.762 15.1932 164.546 15.4586 163.564C15.721 162.578 16.4942 161.773 17.7781 161.15L23.5464 158.354L23.8911 159.065L22.3245 160.257L22.3506 160.311C24.0134 160.41 25.2608 161.316 26.0928 163.032ZM20.527 164.619C21.0536 165.705 21.6456 166.437 22.303 166.814C22.9693 167.195 23.6114 167.236 24.2293 166.937C24.8352 166.642 25.2077 166.173 25.3468 165.527C25.5036 164.888 25.377 164.146 24.9668 163.3C24.5101 162.358 23.7975 161.737 22.829 161.436C21.8754 161.135 20.9458 161.204 20.0398 161.643L19.6169 161.848C19.7291 162.676 20.0325 163.599 20.527 164.619Z" fill="#F8F8F8"></path> <path d="M13.3132 153.42L13.3004 153.381C12.3847 153.277 11.5744 152.953 10.8692 152.411C10.1663 151.875 9.66686 151.172 9.37109 150.301L10.637 149.892C11.0036 150.971 11.6669 151.774 12.6271 152.301C13.5893 152.832 14.645 152.903 15.794 152.514L20.6996 150.848L21.1465 152.165L11.3923 155.476L11.1158 154.661L13.3132 153.42Z" fill="#F8F8F8"></path> <path d="M5.41562 132.401C5.29801 131.521 5.40864 130.69 5.74753 129.904C6.07891 129.113 6.60203 128.448 7.31685 127.908L7.30887 127.849L0.62774 128.743L0.443359 127.365L15.124 125.401L15.2381 126.253L12.9188 127.017L12.9241 127.057C13.7992 127.363 14.5185 127.863 15.0819 128.554C15.6528 129.251 15.9993 130.056 16.1213 130.968C16.3052 132.343 15.9582 133.57 15.0802 134.649C14.2021 135.728 12.9867 136.372 11.4337 136.58C9.85425 136.791 8.50284 136.494 7.37932 135.689C6.25677 134.891 5.60221 133.795 5.41562 132.401ZM14.7737 130.775C14.6212 129.685 14.1149 128.818 13.255 128.173C12.4035 127.54 11.3896 127.303 10.2133 127.46C9.03701 127.617 8.11791 128.114 7.45613 128.949C6.79517 129.791 6.53812 130.76 6.68491 131.857C6.8317 132.954 7.3342 133.819 8.19233 134.45C9.05135 135.089 10.069 135.33 11.2453 135.172C12.4216 135.015 13.3402 134.515 14.0011 133.673C14.663 132.838 14.9205 131.872 14.7737 130.775Z" fill="#F8F8F8"></path> <path d="M14.8194 117.053L14.8405 118.444L4.54058 118.6L4.51947 117.21L14.8194 117.053ZM0.321385 118.714C0.111887 118.531 0.00480613 118.286 0.000149859 117.979C-0.00441083 117.679 0.0951255 117.428 0.298752 117.224C0.502372 117.021 0.747523 116.918 1.03418 116.913C1.32085 116.909 1.56236 117.005 1.75873 117.202C1.96177 117.399 2.06557 117.647 2.07012 117.947C2.07468 118.248 1.97843 118.495 1.78137 118.692C1.59108 118.895 1.3526 118.999 1.06594 119.003C0.77927 119.007 0.531088 118.911 0.321385 118.714Z" fill="#F8F8F8"></path> <path d="M16.7384 100.377C17.7601 100.479 18.6105 101.09 19.2894 102.21C19.961 103.335 20.2137 104.731 20.0475 106.396C19.9059 107.816 19.517 108.96 18.881 109.827C18.2376 110.701 17.3985 111.087 16.3635 110.983C15.3816 110.886 14.6666 110.328 14.2186 109.312L14.1788 109.308C13.7226 110.389 13.0234 110.882 12.0814 110.787C11.199 110.699 10.5317 110.167 10.0798 109.19L10.03 109.186C9.37731 109.616 8.68303 109.792 7.94731 109.711C6.89903 109.607 6.08029 109.083 5.49096 108.14C4.90893 107.191 4.68743 106.019 4.82646 104.626C4.91518 103.737 5.15981 102.93 5.56037 102.207C5.15759 101.811 4.86591 101.344 4.68534 100.803C4.51009 100.276 4.48246 99.781 4.60243 99.3167L5.75683 99.4321C5.64618 100.138 5.77701 100.774 6.14932 101.341L6.20899 101.346C6.96048 100.531 7.85705 100.174 8.89864 100.279C9.94691 100.383 10.7528 100.902 11.3162 101.836C11.8863 102.771 12.1008 103.945 11.9598 105.358C11.832 106.638 11.4322 107.69 10.7603 108.514C11.0629 109.041 11.4332 109.326 11.8711 109.369C12.2824 109.41 12.6237 109.247 12.895 108.878C13.1596 108.51 13.3256 107.987 13.3932 107.31L13.7735 103.498C13.9086 102.414 14.2276 101.601 14.7304 101.061C15.2265 100.521 15.8958 100.293 16.7384 100.377ZM16.205 109.651C16.7755 109.708 17.2671 109.549 17.6797 109.175C18.0776 108.813 18.3694 108.373 18.5552 107.856C18.7315 107.363 18.8501 106.812 18.9111 106.202C19.0282 105.028 18.8714 104.014 18.4407 103.16C18.0027 102.312 17.4585 101.856 16.8084 101.792C16.2312 101.733 15.7851 101.907 15.47 102.311C15.1616 102.716 14.9733 103.26 14.9051 103.944L14.4801 108.202C14.8405 109.089 15.4154 109.572 16.205 109.651ZM5.96894 104.76C5.85766 105.74 6.00376 106.559 6.40726 107.216C6.80946 107.886 7.38207 108.258 8.12516 108.332C8.84832 108.405 9.46989 108.151 9.98986 107.574C10.5165 106.996 10.8282 106.223 10.9248 105.254C11.0248 104.253 10.876 103.427 10.4785 102.778C10.0816 102.122 9.51829 101.757 8.78851 101.684C8.05873 101.612 7.43048 101.864 6.90388 102.441C6.37722 103.018 6.06555 103.791 5.96894 104.76Z" fill="#F8F8F8"></path> <path d="M17.3611 92.9748L17.0657 94.3328L6.99984 92.1446L7.29519 90.7859L17.3611 92.9748ZM2.86512 91.2966C2.70281 91.0699 2.65425 90.8071 2.71941 90.5074C2.78316 90.2145 2.93727 89.9919 3.18174 89.8403C3.4262 89.6888 3.68851 89.6437 3.96867 89.7045C4.24882 89.7652 4.46211 89.9141 4.60855 90.1503C4.7615 90.3886 4.80611 90.6542 4.74235 90.9471C4.67861 91.2406 4.52847 91.4605 4.29192 91.6066C4.06049 91.7609 3.80469 91.808 3.52455 91.7465C3.24439 91.6858 3.02458 91.5356 2.86512 91.2966Z" fill="#F8F8F8"></path> <path d="M19.5014 81.4917C19.7251 80.8008 19.8138 80.1037 19.7674 79.4018L21.0215 79.5869C21.0112 80.5509 20.9013 81.3558 20.692 82.0031C20.3309 83.1194 19.742 83.8786 18.9254 84.28C18.1108 84.6753 17.1294 84.6876 15.9812 84.3162L10.7 82.608L9.8813 85.1389L8.71088 84.7607L9.53884 82.2004L6.61133 80.9175L6.93454 79.918L9.9605 80.897L11.3855 76.4913L12.556 76.8696L11.1309 81.2753L16.1932 82.9132C17.075 83.1986 17.7837 83.2279 18.3194 83.0019C18.855 82.7753 19.249 82.2721 19.5014 81.4917Z" fill="#F8F8F8"></path> <path d="M24.9776 71.3736C24.4507 72.4741 23.736 73.2333 22.8335 73.6512C21.934 74.0629 21.0513 74.0615 20.1853 73.6471C19.2472 73.1978 18.6695 72.4591 18.4521 71.4309C18.2348 70.4027 18.4803 69.1492 19.1887 67.6697C19.6322 66.7439 20.1853 65.8666 20.8481 65.0384L20.5775 64.9087C18.9479 64.1283 17.6346 64.7633 16.6378 66.8142C16.4017 67.3072 16.2227 67.8281 16.1008 68.3757C15.9731 68.9355 15.9 69.3663 15.8813 69.6674C15.8594 69.9603 15.8563 70.1289 15.872 70.1733L14.6128 70.047C14.5876 68.7416 14.8802 67.4512 15.4907 66.1766C16.1876 64.721 17.0022 63.7918 17.9348 63.3883C18.8701 62.9786 19.9813 63.0817 21.2681 63.6982L27.0501 66.4667L26.7088 67.1795L24.7995 66.6975L24.7735 66.7514C25.7332 68.1128 25.8012 69.6537 24.9776 71.3736ZM20.2681 68.0097C19.7469 69.098 19.5434 70.017 19.6575 70.7666C19.7748 71.5251 20.1432 72.0522 20.7626 72.3492C21.37 72.64 21.9693 72.6387 22.5608 72.3451C23.1585 72.0693 23.6603 71.5081 24.0664 70.6601C24.5185 69.7159 24.5605 68.771 24.1925 67.8261C23.8336 66.8927 23.2002 66.2086 22.2921 65.7737L21.8682 65.571C21.291 66.1745 20.7576 66.987 20.2681 68.0097Z" fill="#F8F8F8"></path> <path d="M31.158 59.5498L30.4219 60.7291L17.8574 52.8858L18.5935 51.7065L31.158 59.5498Z" fill="#F8F8F8"></path> <path d="M41.5104 46.1506C40.6938 47.0572 39.7936 47.5834 38.8098 47.7292C37.8305 47.87 36.9842 47.6191 36.2708 46.9766C35.4979 46.2805 35.1526 45.4086 35.2348 44.361C35.317 43.3134 35.9069 42.1802 37.0046 40.9616C37.6918 40.1986 38.4704 39.5135 39.3404 38.9063L39.1174 38.7055C37.7749 37.4963 36.3357 37.7343 34.7997 39.4197C34.4338 39.8259 34.1149 40.2745 33.8431 40.7655C33.5625 41.2664 33.3705 41.6588 33.2673 41.9428C33.1636 42.2173 33.113 42.3781 33.1155 42.4251L31.9434 41.9482C32.2883 40.6886 32.9337 39.5336 33.8797 38.4834C34.9596 37.2845 36.0038 36.6233 37.0123 36.4998C38.0254 36.3714 39.062 36.7846 40.1222 37.7395L44.8854 42.03L44.3567 42.617L42.6615 41.615L42.6212 41.6596C43.1569 43.2368 42.7865 44.7338 41.5104 46.1506ZM37.944 41.5923C37.1363 42.489 36.6813 43.313 36.5789 44.0642C36.477 44.8249 36.6812 45.435 37.1915 45.8946C37.6918 46.3453 38.2672 46.5136 38.9174 46.3994C39.5686 46.3039 40.2088 45.907 40.838 45.2085C41.5386 44.4307 41.8459 43.5366 41.7601 42.5261C41.6798 41.5294 41.2655 40.6941 40.5175 40.0203L40.1682 39.7058C39.444 40.1212 38.7026 40.7501 37.944 41.5923Z" fill="#F8F8F8"></path> <path d="M58.0847 31.6193C58.7366 32.4126 58.9079 33.4454 58.5987 34.7178C58.2802 35.9894 57.4744 37.1564 56.1815 38.219C55.0791 39.1248 53.9965 39.6608 52.9333 39.8268C51.8608 39.992 50.9943 39.6727 50.334 38.8691C49.7074 38.1068 49.5941 37.2075 49.9939 36.1713L49.9685 36.1404C48.883 36.5837 48.0396 36.4396 47.4386 35.7082C46.8755 35.0231 46.7785 34.1752 47.1474 33.1643L47.1156 33.1257C46.3492 32.9702 45.7336 32.6045 45.2689 32.0284C44.6 31.2146 44.3897 30.2656 44.6378 29.1814C44.8954 28.0981 45.565 27.112 46.6467 26.223C47.337 25.6558 48.0794 25.2571 48.8741 25.0268C48.8677 24.4625 48.9913 23.9251 49.2449 23.4146C49.4925 22.9178 49.8224 22.5474 50.2347 22.3035L50.9713 23.1998C50.3947 23.6218 50.0384 24.1649 49.9024 24.829L49.9405 24.8753C51.0489 24.8275 51.9355 25.2078 52.6001 26.0166C53.2689 26.8304 53.4733 27.7671 53.2134 28.8264C52.9577 29.8909 52.2813 30.874 51.1841 31.7757C50.1899 32.5927 49.164 33.056 48.1065 33.1658C47.9496 33.752 48.0109 34.2152 48.2903 34.5551C48.5528 34.8745 48.9101 34.9995 49.3621 34.93C49.81 34.8554 50.2966 34.6022 50.822 34.1703L53.7813 31.7384C54.643 31.0648 55.4423 30.7142 56.1792 30.6868C56.9119 30.6543 57.547 30.9651 58.0847 31.6193ZM51.162 37.8132C51.5261 38.2563 51.9863 38.4908 52.5428 38.5167C53.0804 38.5409 53.5976 38.4352 54.0944 38.1995C54.5663 37.9757 55.0392 37.669 55.5131 37.2796C56.4248 36.5303 57.0294 35.7012 57.3266 34.7924C57.6146 33.8826 57.5511 33.1753 57.1363 32.6705C56.768 32.2223 56.3296 32.0303 55.8213 32.0943C55.3171 32.1634 54.7998 32.4159 54.2692 32.852L50.9622 35.5697C50.5916 36.4524 50.6583 37.2003 51.162 37.8132ZM47.3615 27.1243C46.5907 27.7404 46.1165 28.4236 45.9389 29.1736C45.751 29.9321 45.8941 30.5998 46.3683 31.1767C46.8297 31.7382 47.4485 31.9977 48.2249 31.9552C49.0054 31.9178 49.7717 31.5902 50.5237 30.9721C51.3016 30.3329 51.7788 29.643 51.9554 28.9023C52.1372 28.1575 51.9953 27.5017 51.5297 26.9351C51.064 26.3685 50.4409 26.1039 49.6604 26.1412C48.8799 26.1785 48.1136 26.5062 47.3615 27.1243Z" fill="#F8F8F8"></path> <path d="M58.6545 19.2607C59.0245 17.8711 59.8805 16.7785 61.2226 15.9831C62.5591 15.191 63.9181 14.9668 65.2999 15.3104C66.6884 15.6655 67.7889 16.5284 68.6014 17.8992C68.6253 17.9394 68.7215 18.1343 68.8895 18.4839L60.8972 23.2211C61.5537 24.0411 62.3911 24.5059 63.4093 24.6154C64.4218 24.7283 65.4643 24.467 66.5369 23.8313C67.8504 23.0528 68.7045 22.1203 69.0991 21.0339L69.9873 21.9837C69.4965 23.1817 68.5741 24.1819 67.2202 24.9842C65.6544 25.9122 64.149 26.2231 62.7042 25.9169C61.257 25.6198 60.1255 24.783 59.3097 23.4064C58.5006 22.0414 58.2822 20.6594 58.6545 19.2607ZM60.2394 22.1113L67.0533 18.0727C66.5124 17.2385 65.7513 16.7324 64.77 16.5545C63.7922 16.3823 62.8357 16.5732 61.9009 17.1273C61.0004 17.661 60.3961 18.3873 60.0882 19.3062C59.7745 20.2284 59.8248 21.1634 60.2394 22.1113Z" fill="#F8F8F8"></path> <path d="M77.9223 9.22648C76.944 9.61619 76.2585 10.2837 75.8673 11.229C75.47 12.1768 75.4829 13.1834 75.9069 14.2489L77.8684 19.1733L76.5767 19.6876L72.7656 10.1175L73.5644 9.79923L74.8336 11.8236L74.8712 11.8088C74.9504 10.9088 75.2508 10.104 75.7717 9.39403C76.2892 8.69279 76.9686 8.17445 77.8111 7.83902C79.0687 7.33823 80.2955 7.37353 81.4917 7.94492C82.6906 8.52244 83.57 9.51426 84.1305 10.9204L86.1097 15.8913L84.8091 16.4093L82.8476 11.4849C82.4236 10.4195 81.7443 9.67798 80.8103 9.26055C79.8763 8.84313 78.9137 8.83179 77.9223 9.22648Z" fill="#F8F8F8"></path> <path d="M97.4339 11.7016C98.6342 11.4175 99.588 10.873 100.295 10.0684L100.764 11.3551C99.9519 12.1503 98.9298 12.6938 97.6968 12.9857C96.0555 13.3744 94.5664 13.2062 93.2296 12.4811C91.9017 11.7611 91.0544 10.629 90.6892 9.08483C90.3266 7.55365 90.5731 6.16592 91.4299 4.9217C92.2813 3.68547 93.5341 2.8715 95.1891 2.47982C96.3115 2.21403 97.3418 2.20993 98.2792 2.46746L98.2075 3.76924C97.3691 3.55656 96.4713 3.5567 95.5148 3.76951C94.2558 4.06753 93.3034 4.68718 92.6554 5.62833C91.9952 6.57263 91.802 7.6222 92.0751 8.77705C92.3441 9.91245 92.9927 10.7558 94.0209 11.3072C95.0491 11.8586 96.1866 11.9901 97.4339 11.7016Z" fill="#F8F8F8"></path> <path d="M110.059 8.92359L110.119 8.91771L112.707 0.138992L114.11 0L110.718 11.6121C110.269 13.1707 109.752 14.2437 109.167 14.8309C108.57 15.4261 107.677 15.7825 106.489 15.9001C106.071 15.9416 105.658 15.9289 105.25 15.8622L105.12 14.5584C105.57 14.6345 106.01 14.6511 106.442 14.6084C107.278 14.5256 107.888 14.2608 108.273 13.814C108.645 13.3818 109.015 12.588 109.383 11.4327L109.548 10.8637L104.068 0.994633L105.531 0.849722L110.059 8.92359Z" fill="#F8F8F8"></path> <path d="M131.158 3.53599C131.523 3.96776 131.683 4.46267 131.637 5.02081C131.59 5.58557 131.351 6.04417 130.921 6.39646C130.476 6.75428 129.978 6.91029 129.427 6.86455C128.869 6.81819 128.41 6.58278 128.05 6.15819C127.684 5.73973 127.524 5.2481 127.57 4.68333C127.617 4.1252 127.856 3.66332 128.288 3.29772C128.713 2.93826 129.203 2.7817 129.762 2.82799C130.314 2.87374 130.779 3.10976 131.158 3.53599Z" fill="#F8F8F8"></path> <path d="M149.869 14.5983C149.017 14.3557 148.294 13.9248 147.7 13.3055C147.115 12.6816 146.717 11.9343 146.508 11.0636L146.45 11.0472L144.595 17.5693L143.258 17.1891L147.321 2.90393L148.148 3.1392L147.927 5.56135L147.965 5.57234C148.595 4.89199 149.34 4.43135 150.199 4.19034C151.051 3.94749 151.926 3.95377 152.824 4.20905C154.165 4.59022 155.152 5.39449 155.787 6.62185C156.422 7.8492 156.524 9.2228 156.092 10.7427C155.658 12.2691 154.851 13.3879 153.672 14.0991C152.49 14.8167 151.223 14.9831 149.869 14.5983ZM152.11 5.368C151.043 5.07169 150.049 5.19103 149.128 5.72609C148.204 6.24654 147.578 7.08071 147.251 8.22867C146.925 9.37663 147.018 10.415 147.53 11.344C148.032 12.2839 148.815 12.9053 149.88 13.208C150.945 13.5108 151.941 13.3955 152.869 12.8623C153.789 12.3337 154.411 11.4985 154.735 10.3571C155.06 9.2155 154.972 8.17473 154.469 7.23481C153.961 6.29304 153.174 5.67079 152.11 5.368Z" fill="#F8F8F8"></path> <path d="M165.432 19.0003C166.479 19.4844 167.515 19.5407 168.538 19.1694C169.568 18.8008 170.332 18.078 170.83 17.0008C171.329 15.9236 171.385 14.8733 170.998 13.85C170.618 12.8294 169.904 12.0771 168.858 11.593C167.823 11.1144 166.797 11.0623 165.779 11.4364C164.749 11.805 163.985 12.5279 163.487 13.605C162.994 14.6701 162.941 15.7143 163.327 16.7377C163.701 17.7554 164.403 18.5097 165.432 19.0003ZM169.434 10.3941C170.832 11.0405 171.795 12.0402 172.322 13.3934C172.85 14.7465 172.779 16.1463 172.11 17.5927C171.45 19.0208 170.433 19.9722 169.06 20.4467C167.679 20.9244 166.287 20.8386 164.882 20.1894C163.491 19.5458 162.529 18.543 161.998 17.181C161.47 15.8279 161.54 14.4311 162.206 12.9908C162.869 11.5566 163.887 10.6022 165.26 10.1278C166.633 9.65326 168.024 9.74208 169.434 10.3941Z" fill="#F8F8F8"></path> <path d="M184.43 20.3055C183.554 19.7201 182.616 19.5341 181.615 19.7474C180.609 19.9571 179.788 20.5386 179.15 21.492L176.205 25.8989L175.049 25.1264L180.773 16.5621L181.488 17.0401L180.54 19.233L180.573 19.2552C181.359 18.8105 182.193 18.6016 183.073 18.6285C183.944 18.6573 184.757 18.9236 185.51 19.4275C186.636 20.1795 187.302 21.2103 187.509 22.5198C187.713 23.8348 187.394 25.1214 186.554 26.3798L183.58 30.8282L182.416 30.0502L185.362 25.6433C185.999 24.6899 186.225 23.7101 186.039 22.7039C185.853 21.6977 185.317 20.8982 184.43 20.3055Z" fill="#F8F8F8"></path> <path d="M193.067 37.4423C193.914 38.2245 194.883 38.5961 195.971 38.5571C197.065 38.5226 198.014 38.0692 198.818 37.197C199.623 36.3248 199.999 35.3424 199.945 34.2499C199.897 33.162 199.449 32.2268 198.601 31.4447C197.763 30.6715 196.802 30.3067 195.719 30.3502C194.626 30.3847 193.677 30.8381 192.872 31.7103C192.076 32.5728 191.705 33.5502 191.758 34.6427C191.802 35.7262 192.238 36.6594 193.067 37.4423ZM199.518 30.4806C200.65 31.5251 201.259 32.7722 201.345 34.222C201.432 35.6717 200.935 36.9822 199.854 38.1533C198.788 39.3097 197.528 39.903 196.076 39.933C194.614 39.9635 193.315 39.4542 192.178 38.4053C191.052 37.3653 190.445 36.1158 190.357 34.6565C190.271 33.2068 190.766 31.8988 191.842 30.7326C192.914 29.5712 194.175 28.9755 195.627 28.9455C197.079 28.9155 198.376 29.4272 199.518 30.4806Z" fill="#F8F8F8"></path> <path d="M216.335 49.6995C217.024 50.624 217.265 51.6595 217.055 52.8057C216.837 53.9412 216.192 54.9096 215.117 55.7109L210.323 59.2866L209.492 58.1723L214.254 54.6205C215.023 54.0464 215.479 53.3409 215.619 52.5039C215.757 51.6614 215.562 50.8875 215.036 50.1821C214.517 49.4873 213.832 49.0921 212.979 48.9965C212.116 48.8996 211.324 49.1201 210.603 49.6583L205.808 53.2341L204.971 52.1117L209.734 48.5599C210.535 47.9619 211.012 47.2691 211.165 46.4814C211.317 45.6938 211.109 44.9178 210.539 44.1535C210.037 43.4801 209.381 43.063 208.57 42.9022C207.769 42.7428 207.016 42.9261 206.31 43.4523L201.3 47.1894L200.469 46.0751L208.726 39.9163L209.241 40.6057L207.798 42.1681L207.822 42.2001C208.619 42.0302 209.367 42.0749 210.068 42.3341C210.774 42.5893 211.364 43.0349 211.838 43.6709C212.361 44.371 212.639 45.1072 212.675 45.8794C212.714 46.6569 212.507 47.4104 212.053 48.1399L212.077 48.172C212.892 47.9715 213.682 48.0056 214.448 48.2743C215.2 48.5456 215.829 49.0207 216.335 49.6995Z" fill="#F8F8F8"></path> <path d="M214.819 68.3223C214.278 67.2286 214.121 66.1976 214.349 65.2295C214.58 64.2675 215.126 63.5739 215.986 63.1479C216.919 62.687 217.856 62.6881 218.8 63.1513C219.743 63.6149 220.578 64.5816 221.305 66.0515C221.761 66.9719 222.11 67.9482 222.353 68.9812L222.622 68.848C224.241 68.0472 224.552 66.6216 223.552 64.5721C223.31 64.0818 223.011 63.6196 222.655 63.1861C222.293 62.7401 221.999 62.4167 221.774 62.216C221.556 62.0183 221.426 61.9118 221.381 61.8967L222.258 60.9836C223.301 61.7693 224.135 62.7957 224.762 64.0627C225.477 65.5088 225.706 66.7234 225.449 67.7065C225.194 68.6951 224.427 69.5062 223.148 70.1384L217.402 72.9807L217.052 72.2727L218.609 71.0669L218.582 71.013C216.919 70.9283 215.664 70.0319 214.819 68.3223ZM220.372 66.6913C219.837 65.6098 219.239 64.8827 218.579 64.5099C217.91 64.1344 217.268 64.0989 216.652 64.4034C216.048 64.7018 215.679 65.1742 215.546 65.8208C215.393 66.4612 215.526 67.2026 215.943 68.0458C216.407 68.9839 217.124 69.5997 218.095 69.8933C219.051 70.1862 219.98 70.1097 220.883 69.6632L221.304 69.455C221.185 68.6289 220.874 67.7072 220.372 66.6913Z" fill="#F8F8F8"></path> <path d="M227.672 77.8344L227.686 77.8726C228.602 77.9695 229.415 78.2863 230.124 78.823C230.831 79.3535 231.337 80.0533 231.639 80.9224L230.376 81.3409C230.001 80.2642 229.331 79.4668 228.367 78.9479C227.401 78.4236 226.345 78.3607 225.199 78.7595L220.306 80.4636L219.85 79.1507L229.577 75.7629L229.861 76.5747L227.672 77.8344Z" fill="#F8F8F8"></path> <path d="M235.734 98.7908C235.858 99.6688 235.755 100.502 235.421 101.29C235.096 102.083 234.579 102.752 233.868 103.298L233.876 103.357L240.55 102.411L240.745 103.787L226.081 105.867L225.96 105.015L228.273 104.232L228.268 104.193C227.39 103.893 226.667 103.399 226.098 102.713C225.522 102.02 225.169 101.218 225.04 100.307C224.845 98.9342 225.182 97.7039 226.052 96.6177C226.922 95.5315 228.132 94.8788 229.684 94.6589C231.262 94.435 232.615 94.721 233.745 95.5171C234.873 96.3064 235.537 97.3974 235.734 98.7908ZM226.389 100.49C226.55 101.578 227.063 102.441 227.928 103.079C228.785 103.705 229.8 103.935 230.975 103.769C232.15 103.602 233.065 103.098 233.721 102.258C234.375 101.411 234.625 100.44 234.469 99.3439C234.313 98.2481 233.805 97.3871 232.942 96.7624C232.077 96.1309 231.058 95.8981 229.883 96.0647C228.708 96.2313 227.793 96.7378 227.139 97.5851C226.484 98.4256 226.234 99.3937 226.389 100.49Z" fill="#F8F8F8"></path> <path d="M226.45 114.211L226.418 112.821L236.716 112.584L236.748 113.974L226.45 114.211ZM240.934 112.437C241.145 112.618 241.255 112.863 241.261 113.169C241.268 113.469 241.171 113.722 240.969 113.927C240.767 114.131 240.523 114.237 240.236 114.243C239.949 114.25 239.707 114.156 239.509 113.96C239.305 113.765 239.199 113.517 239.192 113.217C239.185 112.917 239.279 112.668 239.475 112.47C239.664 112.266 239.901 112.16 240.187 112.154C240.474 112.147 240.723 112.242 240.934 112.437Z" fill="#F8F8F8"></path> <path d="M224.662 130.902C223.639 130.808 222.785 130.204 222.097 129.09C221.416 127.969 221.153 126.576 221.306 124.909C221.436 123.488 221.816 122.341 222.445 121.469C223.082 120.589 223.918 120.198 224.954 120.293C225.937 120.383 226.656 120.935 227.112 121.947L227.151 121.951C227.599 120.867 228.295 120.369 229.237 120.456C230.121 120.537 230.792 121.064 231.251 122.037L231.301 122.041C231.95 121.605 232.643 121.424 233.38 121.499C234.429 121.595 235.251 122.113 235.848 123.051C236.438 123.996 236.669 125.166 236.54 126.56C236.458 127.45 236.22 128.258 235.826 128.985C236.231 129.377 236.527 129.843 236.712 130.382C236.891 130.907 236.922 131.402 236.806 131.867L235.651 131.761C235.756 131.054 235.62 130.419 235.243 129.856L235.184 129.85C234.438 130.672 233.545 131.035 232.503 130.939C231.453 130.843 230.644 130.33 230.073 129.4C229.495 128.47 229.271 127.298 229.402 125.884C229.519 124.603 229.911 123.547 230.576 122.718C230.269 122.194 229.897 121.912 229.459 121.872C229.047 121.834 228.707 122 228.439 122.371C228.177 122.741 228.015 123.266 227.953 123.943L227.603 127.758C227.476 128.844 227.163 129.659 226.665 130.202C226.173 130.746 225.505 130.979 224.662 130.902ZM225.123 121.624C224.552 121.572 224.061 121.734 223.652 122.111C223.257 122.477 222.968 122.919 222.787 123.438C222.615 123.931 222.5 124.483 222.444 125.094C222.336 126.269 222.501 127.282 222.938 128.132C223.383 128.976 223.93 129.429 224.581 129.488C225.158 129.542 225.604 129.365 225.916 128.958C226.221 128.551 226.404 128.005 226.467 127.321L226.859 123.059C226.492 122.175 225.913 121.697 225.123 121.624ZM235.397 126.434C235.501 125.453 235.348 124.636 234.939 123.982C234.532 123.316 233.956 122.948 233.213 122.879C232.489 122.813 231.87 123.071 231.354 123.653C230.832 124.235 230.526 125.01 230.437 125.979C230.345 126.981 230.5 127.806 230.903 128.453C231.305 129.105 231.871 129.465 232.602 129.532C233.332 129.6 233.958 129.342 234.48 128.761C235.002 128.179 235.308 127.404 235.397 126.434Z" fill="#F8F8F8"></path> <path d="M224.1 138.309L224.384 136.948L234.467 139.058L234.182 140.419L224.1 138.309ZM238.608 139.873C238.772 140.099 238.823 140.361 238.76 140.662C238.699 140.955 238.546 141.179 238.303 141.332C238.06 141.486 237.797 141.533 237.517 141.474C237.236 141.416 237.022 141.269 236.874 141.033C236.719 140.796 236.672 140.531 236.734 140.237C236.795 139.944 236.943 139.723 237.179 139.574C237.409 139.419 237.664 139.369 237.945 139.428C238.225 139.487 238.447 139.636 238.608 139.873Z" fill="#F8F8F8"></path> <path d="M222.046 149.808C221.828 150.502 221.745 151.199 221.797 151.9L220.541 151.725C220.544 150.761 220.648 149.955 220.852 149.306C221.204 148.187 221.787 147.423 222.6 147.015C223.412 146.614 224.393 146.594 225.544 146.957L230.839 148.623L231.638 146.086L232.811 146.455L232.003 149.021L234.941 150.282L234.625 151.283L231.592 150.328L230.201 154.745L229.027 154.375L230.418 149.959L225.343 148.361C224.459 148.083 223.751 148.059 223.217 148.289C222.683 148.52 222.292 149.026 222.046 149.808Z" fill="#F8F8F8"></path> <path d="M216.651 159.969C217.169 158.864 217.878 158.1 218.777 157.675C219.674 157.256 220.556 157.25 221.425 157.658C222.367 158.1 222.951 158.834 223.176 159.861C223.401 160.887 223.166 162.142 222.469 163.627C222.032 164.557 221.486 165.439 220.83 166.272L221.102 166.4C222.737 167.167 224.046 166.521 225.026 164.463C225.258 163.968 225.433 163.446 225.551 162.897C225.674 162.337 225.744 161.905 225.76 161.604C225.78 161.311 225.782 161.142 225.766 161.098L227.026 161.214C227.061 162.52 226.779 163.812 226.178 165.092C225.493 166.553 224.686 167.488 223.756 167.899C222.824 168.316 221.712 168.221 220.42 167.616L214.617 164.892L214.952 164.177L216.865 164.644L216.891 164.589C215.921 163.235 215.841 161.696 216.651 159.969ZM221.387 163.296C221.899 162.204 222.096 161.283 221.976 160.534C221.852 159.777 221.48 159.252 220.858 158.961C220.248 158.675 219.649 158.681 219.06 158.978C218.464 159.259 217.967 159.824 217.568 160.676C217.123 161.623 217.089 162.568 217.464 163.51C217.83 164.441 218.469 165.12 219.38 165.548L219.806 165.747C220.378 165.139 220.905 164.322 221.387 163.296Z" fill="#F8F8F8"></path> <path d="M210.564 171.841L211.291 170.656L223.917 178.4L223.19 179.585L210.564 171.841Z" fill="#F8F8F8"></path> <path d="M200.315 185.32C201.125 184.408 202.021 183.874 203.003 183.721C203.982 183.573 204.83 183.817 205.549 184.454C206.327 185.144 206.678 186.013 206.605 187.061C206.531 188.109 205.95 189.247 204.862 190.474C204.18 191.243 203.407 191.934 202.542 192.548L202.766 192.747C204.118 193.945 205.556 193.696 207.079 191.999C207.441 191.59 207.756 191.139 208.025 190.646C208.301 190.143 208.49 189.749 208.591 189.464C208.693 189.189 208.742 189.028 208.739 188.981L209.915 189.448C209.58 190.711 208.944 191.871 208.006 192.928C206.935 194.135 205.897 194.804 204.889 194.936C203.877 195.073 202.837 194.667 201.77 193.721L196.973 189.467L197.497 188.877L199.2 189.865L199.24 189.82C198.692 188.247 199.05 186.747 200.315 185.32ZM203.917 189.851C204.718 188.948 205.166 188.12 205.263 187.369C205.359 186.607 205.15 185.998 204.636 185.543C204.133 185.096 203.556 184.933 202.906 185.051C202.256 185.153 201.619 185.554 200.995 186.258C200.301 187.041 200.001 187.937 200.094 188.947C200.182 189.943 200.603 190.775 201.357 191.443L201.708 191.755C202.429 191.334 203.165 190.699 203.917 189.851Z" fill="#F8F8F8"></path> <path d="M183.855 199.982C183.196 199.194 183.017 198.162 183.316 196.887C183.625 195.613 184.421 194.44 185.705 193.367C186.801 192.453 187.879 191.908 188.941 191.734C190.012 191.561 190.881 191.873 191.548 192.672C192.181 193.429 192.301 194.327 191.91 195.366L191.935 195.397C193.017 194.945 193.862 195.083 194.468 195.809C195.036 196.49 195.14 197.337 194.779 198.351L194.811 198.39C195.579 198.539 196.197 198.9 196.667 199.472C197.342 200.281 197.56 201.228 197.32 202.314C197.071 203.399 196.409 204.391 195.334 205.288C194.649 205.861 193.909 206.266 193.117 206.502C193.127 207.066 193.008 207.604 192.758 208.116C192.514 208.616 192.187 208.988 191.777 209.235L191.034 208.345C191.607 207.918 191.959 207.373 192.09 206.707L192.051 206.662C190.943 206.718 190.054 206.345 189.383 205.541C188.708 204.733 188.496 203.797 188.747 202.736C188.995 201.67 189.663 200.681 190.754 199.771C191.742 198.947 192.764 198.475 193.821 198.357C193.973 197.77 193.907 197.307 193.625 196.969C193.36 196.652 193.003 196.53 192.551 196.603C192.103 196.681 191.619 196.938 191.097 197.374L188.157 199.829C187.3 200.509 186.504 200.866 185.767 200.899C185.034 200.937 184.397 200.632 183.855 199.982ZM190.728 193.734C190.361 193.294 189.899 193.063 189.342 193.041C188.804 193.021 188.288 193.131 187.793 193.37C187.323 193.598 186.853 193.908 186.381 194.301C185.475 195.058 184.878 195.891 184.588 196.803C184.307 197.715 184.376 198.422 184.795 198.923C185.166 199.369 185.606 199.557 186.114 199.489C186.618 199.416 187.133 199.159 187.66 198.719L190.946 195.975C191.309 195.09 191.237 194.343 190.728 193.734ZM194.613 204.393C195.379 203.77 195.848 203.083 196.019 202.332C196.201 201.572 196.052 200.905 195.574 200.333C195.108 199.775 194.488 199.52 193.711 199.569C192.931 199.612 192.168 199.945 191.42 200.569C190.647 201.215 190.175 201.908 190.005 202.65C189.829 203.397 189.976 204.051 190.446 204.614C190.916 205.177 191.541 205.437 192.321 205.394C193.102 205.35 193.866 205.016 194.613 204.393Z" fill="#F8F8F8"></path> <path d="M183.383 212.344C183.024 213.737 182.177 214.836 180.841 215.642C179.511 216.444 178.153 216.679 176.77 216.346C175.378 216.002 174.271 215.148 173.447 213.784C173.423 213.744 173.326 213.55 173.154 213.201L181.11 208.402C180.447 207.587 179.606 207.129 178.587 207.027C177.574 206.922 176.533 207.191 175.466 207.836C174.158 208.624 173.311 209.563 172.926 210.653L172.029 209.71C172.511 208.508 173.426 207.501 174.773 206.688C176.332 205.748 177.835 205.425 179.282 205.72C180.731 206.006 181.869 206.834 182.696 208.204C183.516 209.562 183.745 210.943 183.383 212.344ZM181.776 209.506L174.994 213.598C175.542 214.428 176.307 214.928 177.289 215.098C178.269 215.263 179.223 215.065 180.154 214.503C181.05 213.962 181.649 213.232 181.949 212.31C182.256 211.385 182.198 210.451 181.776 209.506Z" fill="#F8F8F8"></path> <path d="M164.194 222.529C165.17 222.132 165.85 221.459 166.234 220.51C166.624 219.56 166.603 218.553 166.17 217.491L164.17 212.582L165.458 212.058L169.344 221.598L168.548 221.922L167.263 219.908L167.226 219.923C167.153 220.824 166.86 221.631 166.344 222.345C165.832 223.05 165.156 223.574 164.317 223.916C163.063 224.426 161.836 224.4 160.635 223.839C159.432 223.271 158.545 222.285 157.974 220.884L155.955 215.928L157.252 215.401L159.251 220.309C159.684 221.371 160.369 222.108 161.306 222.517C162.244 222.928 163.206 222.932 164.194 222.529Z" fill="#F8F8F8"></path> <path d="M144.664 220.207C143.465 220.501 142.516 221.052 141.815 221.863L141.336 220.579C142.142 219.778 143.16 219.227 144.391 218.925C146.029 218.524 147.519 218.68 148.861 219.395C150.195 220.104 151.051 221.23 151.429 222.771C151.803 224.3 151.567 225.689 150.72 226.94C149.878 228.182 148.632 229.006 146.981 229.411C145.86 229.686 144.83 229.698 143.89 229.447L143.952 228.145C144.792 228.352 145.69 228.344 146.645 228.124C147.901 227.816 148.849 227.189 149.489 226.243C150.142 225.293 150.327 224.242 150.045 223.09C149.767 221.956 149.112 221.118 148.079 220.574C147.047 220.031 145.908 219.909 144.664 220.207Z" fill="#F8F8F8"></path> <path d="M132.06 223.084L132.001 223.09L129.482 231.889L128.08 232.039L131.381 220.4C131.817 218.839 132.326 217.761 132.906 217.17C133.5 216.57 134.389 216.206 135.576 216.079C135.994 216.035 136.407 216.044 136.816 216.108L136.956 217.411C136.505 217.338 136.065 217.324 135.634 217.371C134.798 217.46 134.19 217.73 133.809 218.179C133.44 218.615 133.076 219.412 132.717 220.57L132.557 221.14L138.114 230.966L136.652 231.122L132.06 223.084Z" fill="#F8F8F8"></path> </svg> 